# xmcd
#
# Track frame offsets: 
#        150
#        16794
#        31889
#        44671
#        53673
#        65603
#        76105
#        90437
#        105316
#        116787
#        130563
#        143159
#        153598
#        162571
#        176615
#        189160
#        203955
#
# Disc length: 2921 seconds
#
# Revision: 0
# Processed by: cddbd v1.5.2PL0 Copyright (c) Steve Scherf et al.
# Submitted via: ExactAudioCopy v0.99pb3
#
DISCID=d70b6711
DTITLE=Редкая Птица - Булат Окуджава избранные песни в исполнении груп
DTITLE=пы "Редкая Птица"
DYEAR=2006
DGENRE=
TTITLE0=Ночной разговор
TTITLE1=Пиратская лирическая
TTITLE2=Песенка об Арбате
TTITLE3=Бумажный солдатик
TTITLE4=На фоне Пушкина
TTITLE5=Из окон корочкой...
TTITLE6=Заезжий музыкант
TTITLE7=Счастливый жребий
TTITLE8=Живописцы
TTITLE9=Песня омоцарте
TTITLE10=Старинная солдатская песня
TTITLE11=Песенка старого шарманщика
TTITLE12=Дежурный по апрелю
TTITLE13=Я вновь повстречался с надеждой
TTITLE14=За что ж вы Ваньку-то Морозова?
TTITLE15=Песенка о дальней дороге
TTITLE16=Быстро молодость проходит
EXTD=
EXTT0=
EXTT1=
EXTT2=
EXTT3=
EXTT4=
EXTT5=
EXTT6=
EXTT7=
EXTT8=
EXTT9=
EXTT10=
EXTT11=
EXTT12=
EXTT13=
EXTT14=
EXTT15=
EXTT16=
PLAYORDER=
